<svg width="113" height="35" viewBox="0 0 113 35" fill="none" xmlns="http://www.w3.org/2000/svg">
<g filter="url(#filter0_dd_10323_53586)">
<path d="M52.5214 29.6687C51.8459 29.7045 51.1863 29.7164 50.5637 29.7031C49.8458 29.6886 49.165 29.6118 48.5398 29.474C47.7994 29.3111 47.1265 29.0422 46.5397 28.674C46.345 28.5521 46.1622 28.417 45.9927 28.2713C45.7649 28.4925 45.5225 28.6912 45.2642 28.8687C44.6258 29.3084 43.8893 29.629 43.0747 29.8237C42.3979 29.9853 41.6468 30.0859 40.7806 30.131L33.881 30.4939C33.2968 30.5244 32.7485 30.4105 32.273 30.1734C31.7325 30.4714 31.1338 30.6383 30.4861 30.6727L27.6675 30.8211C26.7827 30.8674 26.025 30.6807 25.4157 30.2661C25.2965 30.1853 25.184 30.0965 25.0806 30.0012C24.87 30.2052 24.6104 30.3999 24.2952 30.5721C23.723 30.8846 23.07 31.0621 22.356 31.1006L19.5519 31.2476C18.9175 31.2807 18.3214 31.1549 17.8115 30.8899C17.2605 31.2145 16.6419 31.4012 15.9955 31.4343L13.1928 31.5814C12.2351 31.6317 11.3702 31.3257 10.7476 30.731C10.6708 30.8039 10.5927 30.8741 10.5105 30.9416C9.84164 31.4886 9.03498 31.8012 8.17932 31.8463L5.36067 31.9946C4.19904 32.0556 3.17913 31.5946 2.56189 30.7284C2.2281 30.2581 1.73404 29.2568 2.17379 27.8157L4.02155 21.7677C4.305 20.8406 4.75138 19.9928 5.34742 19.2471C5.92626 18.5239 6.62827 17.904 7.43227 17.406C8.19257 16.9358 9.05485 16.5609 9.99794 16.292C10.9013 16.0337 11.8735 15.8761 12.8855 15.8231L13.9504 15.7675C13.9782 15.5913 14.0206 15.4059 14.0802 15.2138L15.9266 9.16726C16.2101 8.24139 16.6551 7.39235 17.2525 6.64663C17.8313 5.9221 18.5334 5.30353 19.3374 4.8055C20.0963 4.33528 20.9599 3.96043 21.903 3.69155C22.8064 3.43326 23.7786 3.27564 24.7906 3.22266L26.784 3.11802C27.8317 3.06238 28.7841 3.12861 29.6146 3.3114C30.6001 3.52995 31.4345 3.9154 32.0955 4.45714C32.1021 4.46244 32.1087 4.46774 32.1153 4.47304C32.1802 4.4174 32.2465 4.36442 32.314 4.31011C32.9405 3.81606 33.6942 3.40677 34.5552 3.09682C35.3949 2.79482 36.3711 2.61204 37.4573 2.55508L41.9899 2.31666C43.137 2.25573 44.0774 2.35507 44.8615 2.61866C45.5781 2.85973 46.1768 3.20941 46.6484 3.66108C46.8033 3.54982 46.9623 3.44386 47.1265 3.34319C47.8855 2.87297 48.7491 2.49812 49.6922 2.22924C50.5955 1.97095 51.5678 1.81333 52.5797 1.76035L54.5732 1.65571C55.6209 1.60008 56.5732 1.6663 57.4037 1.84909C58.3892 2.06764 59.2237 2.45309 59.8846 2.99483C60.6648 3.63459 61.1933 4.50218 61.4105 5.50221C61.6012 6.38702 61.539 7.35527 61.2251 8.38444L59.5945 13.7211C60.4144 13.8893 61.1416 14.19 61.7655 14.6218C61.9562 14.7542 62.1629 14.9198 62.3682 15.1238C62.5311 14.9688 62.7033 14.8191 62.8834 14.6761C63.5099 14.182 64.2636 13.7727 65.1246 13.4628C65.9643 13.1608 66.9405 12.978 68.0267 12.921L72.5593 12.6826C73.7063 12.6217 74.6468 12.721 75.4309 12.9846C75.8614 13.129 76.2482 13.3131 76.5912 13.5343C76.7952 13.3528 77.0164 13.1913 77.2562 13.0482C77.7436 12.7581 78.3105 12.5528 78.9383 12.4376C79.4006 12.3528 79.9225 12.2959 80.5371 12.2641C81.1517 12.2323 81.6841 12.2349 82.1173 12.2773C82.8127 12.3449 83.4074 12.5555 83.8922 12.9025C84.475 12.5952 85.0843 12.3793 85.7068 12.2627C86.2684 12.1568 86.8088 12.0905 87.3148 12.0641L93.9336 11.7157C94.4701 11.6879 94.976 11.77 95.4264 11.9528C95.8926 11.7197 96.3986 11.5859 96.9245 11.5581L107.484 11.0018C108.765 10.9342 109.864 11.5342 110.424 12.6071C110.85 13.4257 110.902 14.3714 110.582 15.4205L110.261 16.4682C110.003 17.3133 109.566 18.0246 108.959 18.5848C108.261 19.2299 107.411 19.5968 106.502 19.6445L105.474 19.6988L104.115 24.148C103.87 24.9493 103.403 25.6394 102.762 26.1441C102.117 26.6527 101.325 26.9454 100.473 26.9905L97.6543 27.1388C96.1099 27.2196 95.2688 26.4368 94.9045 25.9626C94.7548 25.7679 94.5734 25.4778 94.4462 25.099C94.0674 25.5917 93.629 26.0116 93.1362 26.3507C92.4978 26.7905 91.7613 27.111 90.9467 27.3057C90.2699 27.4673 89.5189 27.568 88.6526 27.613L81.753 27.9759C81.2444 28.0024 80.7609 27.9203 80.3304 27.7402C79.8231 27.9733 79.2589 28.1071 78.6483 28.1388L75.8455 28.2859C75.1793 28.3216 74.5845 28.2236 74.0719 27.9958C73.5726 28.2753 73.0295 28.4342 72.4613 28.4634L69.6585 28.6104C68.6545 28.6634 67.7525 28.3243 67.1246 27.6726C67.0187 27.7812 66.9061 27.8832 66.7882 27.9799C66.1193 28.5269 65.314 28.8395 64.457 28.8846L61.6383 29.0329C60.6065 29.0872 59.6846 28.6859 59.0806 27.9534C58.9349 28.0475 58.7879 28.1375 58.6382 28.221C57.6633 28.7693 56.5997 29.1455 55.4778 29.3402C54.5295 29.5045 53.5334 29.6157 52.5214 29.6687Z" fill="#6938EF"/>
<g filter="url(#filter1_i_10323_53586)">
<path d="M29.3569 15.211C29.2444 15.5822 29.0444 15.8844 28.7584 16.1177C28.4724 16.351 28.148 16.4782 27.7851 16.4968L24.9832 16.6439C24.619 16.6625 24.3608 16.567 24.2046 16.3563C24.0497 16.1455 24.0285 15.8552 24.141 15.4841L24.4615 14.4356C24.5131 14.2659 24.5078 14.1333 24.4443 14.0379C24.382 13.9425 24.2668 13.8987 24.1013 13.908L22.4818 13.9928C22.3362 14.0008 22.2091 14.0565 22.1005 14.1612C21.9919 14.2659 21.9111 14.4038 21.8595 14.5721L21.539 15.6206C21.4265 15.9917 21.2265 16.294 20.9405 16.5273C20.6545 16.7606 20.3301 16.8878 19.9672 16.9064L17.1494 17.0548C16.7866 17.0734 16.5297 16.9779 16.3787 16.7672C16.2291 16.5564 16.2106 16.2661 16.3231 15.895L18.1703 9.84257C18.3676 9.19704 18.6722 8.61512 19.0853 8.09816C19.4985 7.5812 19.995 7.14378 20.5737 6.78456C21.1524 6.42533 21.8118 6.14034 22.5507 5.92958C23.2896 5.71882 24.0788 5.59157 24.9196 5.5465L26.9125 5.44178C27.7534 5.39804 28.487 5.44444 29.1133 5.58362C29.7396 5.7228 30.2415 5.94549 30.6162 6.25434C30.9923 6.56319 31.232 6.96218 31.3392 7.4513C31.4451 7.94042 31.4001 8.50908 31.2028 9.15462L29.3556 15.207L29.3569 15.211ZM23.038 10.7148C22.989 10.8738 22.989 11.0011 23.0367 11.0979C23.0843 11.1946 23.1797 11.2384 23.3253 11.2304L24.9448 11.1456C25.1103 11.1363 25.256 11.0793 25.3804 10.9746C25.5049 10.8685 25.591 10.7373 25.64 10.5782L25.8148 10.0069C25.9538 9.55228 25.9419 9.23945 25.779 9.07111C25.6161 8.90277 25.3526 8.82854 24.9898 8.84709L24.7872 8.8577C24.4244 8.87626 24.1053 8.9823 23.8325 9.17318C23.5597 9.36538 23.3531 9.68881 23.2141 10.1435L23.0393 10.7148H23.038ZM57.138 13.7463C57.0255 14.1174 56.8255 14.4197 56.5395 14.653C56.2535 14.8862 55.9291 15.0135 55.5662 15.0321L52.7643 15.1792C52.4001 15.1977 52.1419 15.1023 51.9857 14.8915C51.8307 14.6808 51.8096 14.3905 51.9221 14.0193L52.2426 12.9708C52.2942 12.8012 52.2889 12.6686 52.2254 12.5732C52.1631 12.4777 52.0479 12.434 51.8824 12.4433L50.2629 12.5281C50.1173 12.5361 49.9902 12.5917 49.8816 12.6965C49.773 12.8012 49.6922 12.939 49.6406 13.1074L49.3201 14.1559C49.2076 14.527 49.0076 14.8292 48.7216 15.0625C48.4356 15.2958 48.1112 15.4231 47.7483 15.4416L44.9305 15.5901C44.5677 15.6087 44.3108 15.5132 44.1598 15.3025C44.0102 15.0917 43.9917 14.8014 44.1042 14.4303L45.9514 8.37785C46.1487 7.73232 46.4533 7.1504 46.8664 6.63344C47.2796 6.11648 47.7761 5.67906 48.3548 5.31984C48.9335 4.96061 49.5929 4.67562 50.3318 4.46486C51.0707 4.2541 51.8599 4.12685 52.7007 4.08178L54.6936 3.97707C55.5345 3.93332 56.268 3.97972 56.8944 4.1189C57.5207 4.25808 58.0226 4.48077 58.3973 4.78962C58.7734 5.09847 59.013 5.49746 59.1203 5.98658C59.2262 6.47571 59.1812 7.04436 58.9839 7.6899L57.1367 13.7423L57.138 13.7463ZM50.8191 9.25006C50.7701 9.40912 50.7701 9.53637 50.8178 9.63314C50.8654 9.7299 50.9608 9.77364 51.1064 9.76569L52.7259 9.68086C52.8914 9.67158 53.0371 9.61458 53.1615 9.50986C53.286 9.40382 53.3721 9.27259 53.4211 9.11353L53.5959 8.54222C53.7349 8.08756 53.723 7.77473 53.5601 7.60639C53.3972 7.43805 53.1337 7.36382 52.7709 7.38237L52.5683 7.39298C52.2055 7.41154 51.8864 7.51758 51.6136 7.70846C51.3408 7.90066 51.1342 8.22409 50.9952 8.67875L50.8204 9.25006H50.8191ZM35.3395 14.8955C35.227 15.2667 35.027 15.5689 34.741 15.8022C34.455 16.0355 34.1306 16.1627 33.7677 16.1813L30.9499 16.3298C30.5871 16.3483 30.3421 16.2131 30.2163 15.9228C30.0905 15.6325 30.1051 15.2335 30.26 14.7245L32.1258 8.6085C32.2648 8.15384 32.4648 7.71243 32.7283 7.28693C32.9905 6.86144 33.3374 6.47836 33.7677 6.13769C34.1981 5.79703 34.7264 5.51469 35.3514 5.28802C35.9765 5.06268 36.7206 4.92615 37.5814 4.88108L42.1127 4.64249C42.9535 4.59874 43.6209 4.65972 44.1175 4.82541C44.6127 4.99243 44.9755 5.22837 45.2033 5.53457C45.4324 5.84077 45.5462 6.19867 45.5489 6.61091C45.5502 7.02315 45.4827 7.4566 45.3436 7.91126L43.4779 14.0273C43.323 14.535 43.0899 14.9459 42.78 15.26C42.4702 15.5729 42.1339 15.7399 41.7697 15.7585L38.9678 15.9056C38.6036 15.9241 38.3454 15.8287 38.1891 15.6179C38.0342 15.4072 38.013 15.1169 38.1256 14.7457L39.6524 9.74183C39.7596 9.39189 39.8152 9.10822 39.8205 8.88951C39.8258 8.6708 39.794 8.4998 39.7239 8.37918C39.6537 8.25723 39.5438 8.18035 39.3968 8.14588C39.2485 8.11275 39.0816 8.09949 38.8949 8.11009L38.6764 8.12202C38.4791 8.13263 38.2964 8.16312 38.1282 8.21349C37.9601 8.26386 37.7985 8.35532 37.6462 8.4892C37.4926 8.62308 37.3523 8.80203 37.2212 9.02737C37.0914 9.25271 36.9722 9.54035 36.8663 9.89029L35.3395 14.8942V14.8955ZM17.454 27.8222C17.3414 28.1933 17.1415 28.4955 16.8554 28.7288C16.5694 28.9621 16.245 29.0894 15.8822 29.1079L13.0802 29.2551C12.7161 29.2736 12.4579 29.1782 12.3016 28.9674C12.1467 28.7567 12.1255 28.4664 12.2381 28.0952L12.5585 27.0467C12.6102 26.8771 12.6049 26.7445 12.5413 26.6491C12.4791 26.5536 12.3639 26.5099 12.1983 26.5192L10.5789 26.604C10.4332 26.612 10.3061 26.6676 10.1975 26.7724C10.0889 26.8771 10.0082 27.0149 9.95651 27.1833L9.63606 28.2318C9.52351 28.6029 9.32356 28.9051 9.03754 29.1384C8.75152 29.3717 8.4271 29.499 8.06427 29.5175L5.24644 29.666C4.88362 29.6846 4.62673 29.5891 4.47577 29.3784C4.32614 29.1676 4.3076 28.8773 4.42016 28.5062L6.26737 22.4537C6.46468 21.8082 6.76924 21.2263 7.18238 20.7093C7.59552 20.1924 8.09208 19.7549 8.67074 19.3957C9.24941 19.0365 9.90884 18.7515 10.6477 18.5408C11.3866 18.33 12.1758 18.2027 13.0167 18.1577L15.0095 18.053C15.8504 18.0092 16.584 18.0556 17.2103 18.1948C17.8366 18.334 18.3385 18.5567 18.7132 18.8655C19.0893 19.1744 19.329 19.5734 19.4362 20.0625C19.5422 20.5516 19.4972 21.1203 19.2999 21.7658L17.4526 27.8182L17.454 27.8222ZM11.135 23.326C11.086 23.485 11.086 23.6123 11.1337 23.709C11.1814 23.8058 11.2767 23.8495 11.4224 23.8416L13.0418 23.7568C13.2074 23.7475 13.353 23.6905 13.4775 23.5858C13.602 23.4797 13.688 23.3485 13.737 23.1894L13.9118 22.6181C14.0508 22.1635 14.0389 21.8506 13.8761 21.6823C13.7132 21.5139 13.4497 21.4397 13.0869 21.4583L12.8843 21.4689C12.5214 21.4874 12.2023 21.5935 11.9295 21.7843C11.6567 21.9766 11.4502 22.3 11.3111 22.7546L11.1363 23.326H11.135ZM26.8781 26.8254C26.9522 26.5815 26.9072 26.3972 26.7417 26.27C26.5762 26.144 26.2756 26.091 25.8399 26.1149L24.8746 26.1653C24.6773 26.1759 24.5091 26.2156 24.3714 26.2859C24.2324 26.3561 24.1463 26.4436 24.1145 26.5497L23.6736 27.9958C23.6087 28.2079 23.4445 28.3855 23.181 28.53C22.9175 28.6745 22.6037 28.7554 22.2408 28.7752L19.4376 28.9224C19.084 28.9409 18.8311 28.8455 18.6748 28.6347C18.5199 28.424 18.4987 28.1337 18.6113 27.7625L21.2583 19.0895C21.3616 18.7502 21.543 18.4572 21.8025 18.2094C22.0621 17.9615 22.3521 17.8289 22.6752 17.8117L31.2068 17.3624C31.8808 17.3266 32.4515 17.3411 32.9176 17.4048C33.3824 17.4684 33.7439 17.6089 33.9995 17.825C34.255 18.041 34.402 18.3486 34.4378 18.7475C34.4735 19.1465 34.3954 19.6635 34.2021 20.2997C34.0313 20.8618 33.8459 21.3191 33.6446 21.673C33.4446 22.0269 33.2328 22.304 33.0077 22.5041C32.7839 22.7029 32.5469 22.8408 32.2992 22.9164C32.0516 22.9919 31.7974 23.037 31.5378 23.0502C30.9565 23.0807 30.5566 23.1364 30.3381 23.2146C30.1197 23.2941 29.9753 23.4506 29.9038 23.6825C29.8323 23.9145 29.8853 24.0802 30.0693 24.1425C30.2547 24.2061 30.6427 24.222 31.2346 24.1902C31.7643 24.1624 32.1311 24.2472 32.3363 24.4447C32.5416 24.6422 32.5667 24.9948 32.4118 25.5038L31.8742 27.2668C31.7802 27.5743 31.5961 27.8262 31.322 28.0223C31.0479 28.2198 30.7288 28.3272 30.3659 28.3458L27.5481 28.4942C27.184 28.5128 26.9138 28.4624 26.7364 28.3418C26.559 28.2212 26.502 28.0541 26.5669 27.8434L26.8768 26.8267L26.8781 26.8254ZM27.4448 22.357C27.5587 22.3504 27.6713 22.3424 27.7825 22.3318C27.8937 22.3212 27.997 22.2894 28.095 22.2377C28.193 22.186 28.283 22.1051 28.3678 21.9964C28.4525 21.8877 28.5227 21.738 28.581 21.5471C28.6419 21.3456 28.6604 21.1945 28.6366 21.0911C28.6114 20.989 28.5624 20.9148 28.4883 20.8724C28.4141 20.83 28.3267 20.8074 28.2248 20.8074C28.1228 20.8074 28.0248 20.8101 27.9308 20.8154L26.5921 20.8856C26.3537 20.8989 26.1524 20.9532 25.9909 21.05C25.828 21.1468 25.7168 21.2965 25.6546 21.498L25.5579 21.8162C25.497 22.0176 25.5155 22.1727 25.6148 22.2814C25.7141 22.3914 25.8836 22.4392 26.122 22.4272L27.4448 22.357ZM38.5387 24.7575C38.8817 24.739 39.1677 24.7217 39.3968 24.7045C39.6272 24.6873 39.8152 24.6621 39.9635 24.6276C40.1118 24.5945 40.2244 24.5441 40.3012 24.4765C40.378 24.4102 40.4349 24.3135 40.4747 24.1862C40.5144 24.059 40.517 23.9622 40.4866 23.8959C40.4561 23.8297 40.382 23.7872 40.2654 23.7674C40.1489 23.7475 39.9874 23.7408 39.7821 23.7461C39.5756 23.7514 39.312 23.7634 38.9903 23.7806L36.8107 23.8959C36.1883 23.9291 35.6997 23.8787 35.3475 23.7461C34.9939 23.6136 34.7476 23.4081 34.6086 23.1284C34.4696 22.8488 34.4206 22.4948 34.4656 22.0654C34.5093 21.6359 34.6179 21.1401 34.7887 20.5794C35.031 19.7854 35.3382 19.1545 35.7116 18.6866C36.0837 18.2187 36.4876 17.8568 36.9246 17.5983C37.3602 17.3411 37.8091 17.1688 38.2699 17.0813C38.7307 16.9952 39.1624 16.9408 39.5676 16.9196L46.1845 16.571C46.5473 16.5524 46.8042 16.6479 46.9552 16.8586C47.1048 17.0694 47.1233 17.361 47.0108 17.7309L46.7883 18.4612C46.6758 18.8324 46.4758 19.1346 46.1898 19.3679C45.9038 19.6012 45.5793 19.7284 45.2165 19.747L41.0282 19.9684C40.623 19.9896 40.3303 20.0214 40.1489 20.0611C39.9675 20.1022 39.847 20.2229 39.7848 20.4243C39.7106 20.6682 39.7768 20.7995 39.986 20.8207C40.1939 20.8406 40.5422 20.8379 41.0308 20.8127L42.5258 20.7345C43.3667 20.6908 44.0407 20.7252 44.5465 20.8392C45.0523 20.9532 45.4244 21.1494 45.6614 21.4291C45.8985 21.7088 46.0123 22.0693 46.0044 22.5134C45.9965 22.9575 45.9011 23.4797 45.7171 24.0842C45.4999 24.7933 45.2496 25.3805 44.9663 25.8431C44.6816 26.3058 44.3386 26.6756 43.9387 26.9526C43.5375 27.2297 43.07 27.4311 42.5364 27.5584C42.0028 27.6856 41.3777 27.7678 40.6614 27.8063L33.7638 28.1695C33.442 28.1867 33.2195 28.0886 33.0951 27.8765C32.9706 27.6644 32.9653 27.3728 33.0778 27.0017L33.3109 26.2395C33.4235 25.8683 33.6049 25.5674 33.8551 25.3355C34.1041 25.1035 34.3795 24.9789 34.6814 24.963L38.5427 24.7589L38.5387 24.7575ZM61.3992 18.1908C61.2628 17.4472 60.941 16.8997 60.4299 16.5458C59.9201 16.1919 59.266 15.9851 58.4675 15.9228C57.669 15.8605 56.8083 15.8539 55.884 15.9029C55.2617 15.9361 54.6526 15.9891 54.058 16.062C53.4635 16.1349 52.8874 16.2516 52.3273 16.4106C51.7672 16.5723 51.2322 16.7857 50.7198 17.0575C50.2073 17.3292 49.7319 17.6858 49.291 18.1259C48.85 18.5659 48.4462 19.1028 48.0794 19.7364C47.7126 20.37 47.3961 21.1216 47.1313 21.9898C46.8664 22.858 46.7261 23.6003 46.7128 24.2154C46.6983 24.8318 46.783 25.3421 46.9644 25.749C47.1472 26.156 47.4173 26.4728 47.7775 26.6981C48.1376 26.9235 48.5574 27.0892 49.0354 27.1939C49.5135 27.2986 50.0378 27.3569 50.6059 27.3688C51.174 27.3808 51.7698 27.3688 52.3922 27.337C53.3165 27.288 54.209 27.1886 55.0723 27.0388C55.9357 26.889 56.7394 26.604 57.485 26.1851C58.2305 25.7649 58.9045 25.1645 59.5056 24.3824C60.1068 23.6003 60.606 22.5585 61.0033 21.2555C61.4005 19.9525 61.5316 18.9305 61.3952 18.1868L61.3992 18.1908ZM52.6597 26.2461C52.7696 25.1022 52.5193 24.1001 51.9764 23.3392C51.4348 22.5757 50.5979 22.0534 49.5399 21.8639C50.7489 21.5564 51.938 20.9254 52.9709 20.081C54.0037 19.2353 54.883 18.1762 55.4802 17.0058C55.3689 18.151 55.6205 19.1518 56.1634 19.9127C56.7063 20.6749 57.5419 21.1985 58.5999 21.3867C56.1793 22.0044 53.8528 23.9052 52.6597 26.2461ZM65.9001 25.2679C65.7875 25.639 65.5876 25.9412 65.3015 26.1745C65.0155 26.4078 64.6911 26.5351 64.3283 26.5536L61.5104 26.7021C61.1476 26.7207 60.9026 26.5854 60.7768 26.2952C60.6511 26.0049 60.6656 25.6059 60.8205 25.0969L62.6863 18.9808C62.8253 18.5262 63.0253 18.0848 63.2888 17.6593C63.551 17.2338 63.8979 16.8507 64.3283 16.51C64.7586 16.1694 65.287 15.887 65.912 15.6604C66.537 15.435 67.2812 15.2985 68.1419 15.2534L72.6732 15.0148C73.514 14.9711 74.1814 15.0321 74.678 15.1977C75.1732 15.3648 75.536 15.6007 75.7638 15.9069C75.9929 16.2131 76.1068 16.571 76.1094 16.9832C76.1107 17.3955 76.0432 17.8289 75.9042 18.2836L74.0384 24.3996C73.8835 24.9073 73.6504 25.3182 73.3406 25.6324C73.0307 25.9452 72.6944 26.1122 72.3302 26.1308L69.5283 26.2779C69.1641 26.2965 68.9059 26.201 68.7497 25.9903C68.5947 25.7795 68.5736 25.4892 68.6861 25.1181L70.2129 20.1142C70.3201 19.7642 70.3758 19.4806 70.3811 19.2618C70.3863 19.0431 70.3546 18.8721 70.2844 18.7515C70.2142 18.6296 70.1043 18.5527 69.9573 18.5182C69.809 18.4851 69.6422 18.4718 69.4555 18.4824L69.237 18.4944C69.0397 18.505 68.8569 18.5355 68.6888 18.5858C68.5206 18.6362 68.359 18.7277 68.2068 18.8615C68.0532 18.9954 67.9128 19.1744 67.7817 19.3997C67.6519 19.625 67.5328 19.9127 67.4268 20.2626L65.9001 25.2665V25.2679ZM76.2895 20.203C76.4021 19.8318 76.602 19.5296 76.888 19.2963C77.174 19.063 77.4985 18.9358 77.8613 18.9172L80.6632 18.7701C81.0261 18.7515 81.2856 18.847 81.4405 19.0577C81.5955 19.2685 81.6166 19.5588 81.5041 19.9299L79.9482 25.0293C79.8833 25.2414 79.7191 25.419 79.4556 25.5635C79.1921 25.7079 78.8783 25.7888 78.5154 25.8087L75.7135 25.9558C75.3493 25.9744 75.0792 25.924 74.9018 25.8034C74.7243 25.6828 74.6674 25.5157 74.7323 25.3037L76.2882 20.2043L76.2895 20.203ZM79.49 18.2995C78.9709 18.3273 78.5512 18.3234 78.2294 18.2876C77.9076 18.2531 77.668 18.1683 77.5091 18.0371C77.3502 17.9045 77.2654 17.7216 77.2548 17.4883C77.2442 17.255 77.2972 16.9475 77.4137 16.5657C77.5302 16.1839 77.668 15.8751 77.8269 15.6378C77.9858 15.4006 78.191 15.207 78.44 15.0586C78.6889 14.9101 78.9935 14.8027 79.3497 14.7365C79.7072 14.6702 80.1389 14.6251 80.6487 14.5973C81.1585 14.5694 81.5676 14.5721 81.8801 14.6026C82.1926 14.6331 82.4217 14.7126 82.5661 14.8399C82.7104 14.9671 82.7846 15.1461 82.7859 15.3754C82.7872 15.6047 82.7303 15.9096 82.6137 16.2913C82.4972 16.6731 82.3661 16.9846 82.2205 17.2258C82.0748 17.4684 81.8868 17.6659 81.6564 17.8183C81.426 17.9708 81.136 18.0834 80.7877 18.1537C80.4394 18.224 80.0051 18.273 79.4874 18.3008L79.49 18.2995ZM86.3982 22.2337C86.7412 22.2151 87.0272 22.1979 87.2563 22.1807C87.4867 22.1635 87.6747 22.1383 87.823 22.1038C87.9713 22.0707 88.0839 22.0203 88.1607 21.9527C88.2375 21.8864 88.2944 21.7897 88.3342 21.6624C88.3739 21.5351 88.3765 21.4384 88.3461 21.3721C88.3156 21.3058 88.2415 21.2634 88.1249 21.2435C88.0084 21.2236 87.8469 21.217 87.6416 21.2223C87.435 21.2276 87.1715 21.2396 86.8498 21.2568L84.6702 21.3721C84.0478 21.4052 83.5592 21.3549 83.207 21.2223C82.8534 21.0898 82.6071 20.8843 82.4681 20.6046C82.329 20.3249 82.28 19.971 82.3251 19.5415C82.3688 19.1121 82.4773 18.6163 82.6482 18.0556C82.8905 17.2616 83.1977 16.6307 83.5711 16.1627C83.9432 15.6948 84.3471 15.333 84.7841 15.0745C85.2197 14.8173 85.6686 14.645 86.1294 14.5575C86.5902 14.4714 87.0219 14.417 87.4271 14.3958L94.044 14.0472C94.4068 14.0286 94.6637 14.1241 94.8146 14.3348C94.9643 14.5456 94.9828 14.8372 94.8703 15.207L94.6478 15.9374C94.5352 16.3085 94.3353 16.6108 94.0493 16.8441C93.7632 17.0774 93.4388 17.2046 93.076 17.2232L88.8877 17.4445C88.4825 17.4657 88.1898 17.4976 88.0084 17.5373C87.827 17.5784 87.7065 17.699 87.6443 17.9005C87.5701 18.1444 87.6363 18.2756 87.8455 18.2969C88.0534 18.3167 88.4017 18.3141 88.8903 18.2889L90.3853 18.2107C91.2261 18.167 91.9001 18.2014 92.406 18.3154C92.9118 18.4294 93.2839 18.6256 93.5209 18.9053C93.758 19.185 93.8718 19.5455 93.8639 19.9896C93.8559 20.4336 93.7606 20.9559 93.5765 21.5603C93.3594 22.2695 93.1091 22.8567 92.8257 23.3193C92.541 23.7819 92.1981 24.1518 91.7982 24.4288C91.397 24.7058 90.9295 24.9073 90.3959 25.0346C89.8622 25.1618 89.2372 25.244 88.5209 25.2824L81.6233 25.6456C81.3015 25.6629 81.079 25.5648 80.9545 25.3527C80.8301 25.1406 80.8248 24.849 80.9373 24.4778L81.1704 23.7157C81.2829 23.3445 81.4644 23.0436 81.7146 22.8116C81.9636 22.5797 82.239 22.4551 82.5409 22.4392L86.4022 22.235L86.3982 22.2337ZM96.7466 24.5401C96.597 24.3453 96.5731 24.0775 96.6764 23.7395L98.3727 18.1802C98.4376 17.9681 98.4429 17.8409 98.3899 17.7958C98.3369 17.7521 98.2694 17.7322 98.186 17.7362L95.8501 17.8594C95.4873 17.878 95.2344 17.7613 95.0914 17.5082C94.9484 17.255 94.9457 16.9064 95.0821 16.461L95.4026 15.4125C95.5376 14.9671 95.7522 14.6079 96.0461 14.3308C96.3401 14.0551 96.6685 13.9067 97.0313 13.8881L107.588 13.3314C107.95 13.3128 108.198 13.4295 108.33 13.6827C108.463 13.9358 108.46 14.2858 108.325 14.7298L108.005 15.7783C107.87 16.2237 107.651 16.5843 107.353 16.86C107.054 17.1357 106.723 17.2841 106.36 17.3027L104.024 17.426C103.941 17.43 103.859 17.4578 103.777 17.5095C103.695 17.5612 103.622 17.6924 103.557 17.9045L101.861 23.4638C101.753 23.8137 101.567 24.0948 101.296 24.3055C101.028 24.5176 100.706 24.6343 100.332 24.6528L97.5146 24.8013C97.1505 24.8198 96.8949 24.7323 96.7453 24.5375L96.7466 24.5401Z" fill="white"/>
</g>
</g>
<defs>
<filter id="filter0_dd_10323_53586" x="0" y="-1" width="112.788" height="36" filterUnits="userSpaceOnUse" color-interpolation-filters="sRGB">
<feFlood flood-opacity="0" result="BackgroundImageFix"/>
<feColorMatrix in="SourceAlpha" type="matrix" values="0 0 0 0 0 0 0 0 0 0 0 0 0 0 0 0 0 0 127 0" result="hardAlpha"/>
<feOffset dy="1"/>
<feGaussianBlur stdDeviation="1"/>
<feColorMatrix type="matrix" values="0 0 0 0 0.0627451 0 0 0 0 0.0941176 0 0 0 0 0.156863 0 0 0 0.02 0"/>
<feBlend mode="normal" in2="BackgroundImageFix" result="effect1_dropShadow_10323_53586"/>
<feColorMatrix in="SourceAlpha" type="matrix" values="0 0 0 0 0 0 0 0 0 0 0 0 0 0 0 0 0 0 127 0" result="hardAlpha"/>
<feOffset dy="1"/>
<feGaussianBlur stdDeviation="1"/>
<feColorMatrix type="matrix" values="0 0 0 0 0.0840493 0 0 0 0 0.0394488 0 0 0 0 0.262451 0 0 0 0.02 0"/>
<feBlend mode="normal" in2="effect1_dropShadow_10323_53586" result="effect2_dropShadow_10323_53586"/>
<feBlend mode="normal" in="SourceGraphic" in2="effect2_dropShadow_10323_53586" result="shape"/>
</filter>
<filter id="filter1_i_10323_53586" x="4.34768" y="3.96118" width="104.08" height="25.7071" filterUnits="userSpaceOnUse" color-interpolation-filters="sRGB">
<feFlood flood-opacity="0" result="BackgroundImageFix"/>
<feBlend mode="normal" in="SourceGraphic" in2="BackgroundImageFix" result="shape"/>
<feColorMatrix in="SourceAlpha" type="matrix" values="0 0 0 0 0 0 0 0 0 0 0 0 0 0 0 0 0 0 127 0" result="hardAlpha"/>
<feOffset dx="0.25" dy="1"/>
<feComposite in2="hardAlpha" operator="arithmetic" k2="-1" k3="1"/>
<feColorMatrix type="matrix" values="0 0 0 0 0.234807 0 0 0 0 0.0519172 0 0 0 0 0.755339 0 0 0 0.04 0"/>
<feBlend mode="normal" in2="shape" result="effect1_innerShadow_10323_53586"/>
</filter>
</defs>
</svg>
