<svg width="34" height="33" viewBox="0 0 34 33" fill="none" xmlns="http://www.w3.org/2000/svg">
<g filter="url(#filter0_d_1083_50505)">
<path d="M15.1775 11.8692H16.8673H18.8827C19.5686 11.8692 20.1004 11.2257 20.2931 10.5674C21.0263 8.06203 22.7351 2.815 24.1855 2.815C26.0908 2.815 27.9185 9.44317 28.6046 14.0485C29.2908 18.6539 29.0486 22.5936 27.9185 25.0635C26.7884 27.5334 21.6793 29.1851 17.2167 29.1851C12.7541 29.1851 8.61762 27.8027 6.56325 25.0635C4.91975 22.8722 5.32199 20.2098 5.79445 14.0485C6.26691 7.88726 7.93681 3.16422 9.81797 3.16422C11.3922 3.16422 12.0683 7.28997 13.0894 10.2853C13.3421 11.0266 14.3943 11.8692 15.1775 11.8692Z" fill="#6938EF"/>
<g filter="url(#filter1_i_1083_50505)">
<path d="M19.0343 22.5246C19.0343 23.0318 18.3923 23.7924 17.6003 23.7924C16.8083 23.7924 16.1662 23.0318 16.1662 22.5246C16.1662 22.0175 16.8083 21.9557 17.6003 21.9557C18.3923 21.9557 19.0343 22.0175 19.0343 22.5246Z" fill="white"/>
</g>
<g filter="url(#filter2_i_1083_50505)">
<path d="M25.0982 19.7238C25.0982 22.27 23.553 22.1671 22.1642 22.1671C20.7754 22.1671 19.6496 22.27 19.6496 19.7238C19.6496 17.1776 20.7754 15.1135 22.1642 15.1135C23.553 15.1135 25.0982 17.1776 25.0982 19.7238Z" fill="#F4F3FF"/>
</g>
<g filter="url(#filter3_i_1083_50505)">
<path d="M15.1073 19.7238C15.1073 22.27 13.9815 22.1671 12.5927 22.1671C11.2039 22.1671 9.65872 22.27 9.65872 19.7238C9.65872 17.1776 11.2039 15.1135 12.5927 15.1135C13.9815 15.1135 15.1073 17.1776 15.1073 19.7238Z" fill="#F4F3FF"/>
</g>
<g filter="url(#filter4_d_1083_50505)">
<path d="M12.2719 20.6289C12.3435 20.9661 12.8085 21.0068 12.9376 20.6871L13.3186 19.7439C13.3621 19.6361 13.4563 19.5571 13.5699 19.5329L14.565 19.3216C14.9023 19.2499 14.9429 18.7849 14.6232 18.6558L13.68 18.2749C13.5723 18.2314 13.4932 18.1372 13.4691 18.0235L13.2577 17.0285C13.1861 16.6912 12.7211 16.6505 12.592 16.9702L12.211 17.9134C12.1675 18.0212 12.0733 18.1002 11.9596 18.1244L10.9646 18.3357C10.6273 18.4074 10.5866 18.8724 10.9063 19.0015L11.8496 19.3824C11.9573 19.4259 12.0364 19.5202 12.0605 19.6338L12.2719 20.6289Z" fill="#6938EF"/>
<path d="M12.2719 20.6289C12.3435 20.9661 12.8085 21.0068 12.9376 20.6871L13.3186 19.7439C13.3621 19.6361 13.4563 19.5571 13.5699 19.5329L14.565 19.3216C14.9023 19.2499 14.9429 18.7849 14.6232 18.6558L13.68 18.2749C13.5723 18.2314 13.4932 18.1372 13.4691 18.0235L13.2577 17.0285C13.1861 16.6912 12.7211 16.6505 12.592 16.9702L12.211 17.9134C12.1675 18.0212 12.0733 18.1002 11.9596 18.1244L10.9646 18.3357C10.6273 18.4074 10.5866 18.8724 10.9063 19.0015L11.8496 19.3824C11.9573 19.4259 12.0364 19.5202 12.0605 19.6338L12.2719 20.6289Z" fill="#6938EF"/>
<path d="M13.4113 19.7813L13.0304 20.7246C12.8643 21.1357 12.2662 21.0834 12.174 20.6496L11.9627 19.6546C11.9455 19.5735 11.889 19.5062 11.8121 19.4751L10.8689 19.0942C10.4577 18.9282 10.51 18.33 10.9438 18.2379L11.9389 18.0266C12.02 18.0093 12.0872 17.9529 12.1183 17.876L12.4992 16.9328C12.6653 16.5216 13.2634 16.5739 13.3555 17.0077L13.5669 18.0027C13.5841 18.0839 13.6406 18.1511 13.7175 18.1822L14.6607 18.5631C15.0719 18.7292 15.0196 19.3273 14.5858 19.4194L13.5907 19.6308C13.5096 19.648 13.4423 19.7044 13.4113 19.7813Z" stroke="white" stroke-width="0.2"/>
</g>
<g filter="url(#filter5_d_1083_50505)">
<path d="M21.5268 17.0202C21.6043 16.6842 22.0699 16.6516 22.1934 16.9735L22.5578 17.9233C22.5995 18.0318 22.6923 18.1124 22.8055 18.1386L23.7967 18.3673C24.1327 18.4448 24.1652 18.9104 23.8433 19.0339L22.8936 19.3983C22.7851 19.44 22.7044 19.5328 22.6783 19.646L22.4496 20.6372C22.3721 20.9732 21.9065 21.0057 21.7829 20.6838L21.4185 19.7341C21.3769 19.6256 21.2841 19.5449 21.1709 19.5188L20.1797 19.2901C19.8437 19.2126 19.8111 18.747 20.133 18.6234L21.0828 18.259C21.1913 18.2174 21.2719 18.1246 21.2981 18.0114L21.5268 17.0202Z" fill="#6938EF"/>
<path d="M21.5268 17.0202C21.6043 16.6842 22.0699 16.6516 22.1934 16.9735L22.5578 17.9233C22.5995 18.0318 22.6923 18.1124 22.8055 18.1386L23.7967 18.3673C24.1327 18.4448 24.1652 18.9104 23.8433 19.0339L22.8936 19.3983C22.7851 19.44 22.7044 19.5328 22.6783 19.646L22.4496 20.6372C22.3721 20.9732 21.9065 21.0057 21.7829 20.6838L21.4185 19.7341C21.3769 19.6256 21.2841 19.5449 21.1709 19.5188L20.1797 19.2901C19.8437 19.2126 19.8111 18.747 20.133 18.6234L21.0828 18.259C21.1913 18.2174 21.2719 18.1246 21.2981 18.0114L21.5268 17.0202Z" fill="#6938EF"/>
<path d="M22.6512 17.8874L22.2868 16.9377C22.1279 16.5237 21.529 16.5656 21.4293 16.9977L21.2006 17.9889C21.182 18.0697 21.1244 18.136 21.0469 18.1657L20.0972 18.5301C19.6832 18.6889 19.7251 19.2879 20.1572 19.3876L21.1484 19.6163C21.2292 19.6349 21.2955 19.6925 21.3252 19.7699L21.6896 20.7197C21.8484 21.1337 22.4474 21.0918 22.5471 20.6597L22.7758 19.6685C22.7944 19.5877 22.852 19.5214 22.9294 19.4917L23.8792 19.1273C24.2932 18.9684 24.2513 18.3695 23.8192 18.2698L22.828 18.0411C22.7472 18.0225 22.6809 17.9649 22.6512 17.8874Z" stroke="white" stroke-width="0.2"/>
</g>
<path d="M1.39289 23.069C2.1855 22.3249 5.00332 21.0987 6.24561 21.5645" stroke="#6938EF" stroke-linecap="round"/>
<path d="M1.39289 26.3202C2.03126 25.2993 4.64757 23.2797 6.04706 23.5312" stroke="#6938EF" stroke-linecap="round"/>
<path d="M3.81925 27.4021C4.45762 26.3812 7.07393 24.3616 8.47342 24.6132" stroke="#6938EF" stroke-linecap="round"/>
<path d="M30.3243 27.4021C29.686 26.3812 27.0697 24.3616 25.6702 24.6132" stroke="#6938EF" stroke-linecap="round"/>
<path d="M32.6824 25.9708C32.044 24.9499 29.1675 23.2706 27.768 23.5222" stroke="#6938EF" stroke-linecap="round"/>
<path d="M32.6697 23.0651C31.8867 22.1503 28.7747 21.3239 27.4281 21.7805" stroke="#6938EF" stroke-linecap="round"/>
</g>
<defs>
<filter id="filter0_d_1083_50505" x="0.892822" y="0" width="32.5396" height="33" filterUnits="userSpaceOnUse" color-interpolation-filters="sRGB">
<feFlood flood-opacity="0" result="BackgroundImageFix"/>
<feColorMatrix in="SourceAlpha" type="matrix" values="0 0 0 0 0 0 0 0 0 0 0 0 0 0 0 0 0 0 127 0" result="hardAlpha"/>
<feOffset dx="0.25" dy="1"/>
<feColorMatrix type="matrix" values="0 0 0 0 0.234807 0 0 0 0 0.0519172 0 0 0 0 0.755339 0 0 0 0.04 0"/>
<feBlend mode="normal" in2="BackgroundImageFix" result="effect1_dropShadow_1083_50505"/>
<feBlend mode="normal" in="SourceGraphic" in2="effect1_dropShadow_1083_50505" result="shape"/>
</filter>
<filter id="filter1_i_1083_50505" x="16.1662" y="21.9557" width="2.86807" height="1.83661" filterUnits="userSpaceOnUse" color-interpolation-filters="sRGB">
<feFlood flood-opacity="0" result="BackgroundImageFix"/>
<feBlend mode="normal" in="SourceGraphic" in2="BackgroundImageFix" result="shape"/>
<feColorMatrix in="SourceAlpha" type="matrix" values="0 0 0 0 0 0 0 0 0 0 0 0 0 0 0 0 0 0 127 0" result="hardAlpha"/>
<feOffset dx="0.25" dy="1"/>
<feComposite in2="hardAlpha" operator="arithmetic" k2="-1" k3="1"/>
<feColorMatrix type="matrix" values="0 0 0 0 0.234807 0 0 0 0 0.0519172 0 0 0 0 0.755339 0 0 0 0.04 0"/>
<feBlend mode="normal" in2="shape" result="effect1_innerShadow_1083_50505"/>
</filter>
<filter id="filter2_i_1083_50505" x="19.6496" y="15.1135" width="5.44857" height="7.0542" filterUnits="userSpaceOnUse" color-interpolation-filters="sRGB">
<feFlood flood-opacity="0" result="BackgroundImageFix"/>
<feBlend mode="normal" in="SourceGraphic" in2="BackgroundImageFix" result="shape"/>
<feColorMatrix in="SourceAlpha" type="matrix" values="0 0 0 0 0 0 0 0 0 0 0 0 0 0 0 0 0 0 127 0" result="hardAlpha"/>
<feOffset dx="0.25" dy="1"/>
<feComposite in2="hardAlpha" operator="arithmetic" k2="-1" k3="1"/>
<feColorMatrix type="matrix" values="0 0 0 0 0.234807 0 0 0 0 0.0519172 0 0 0 0 0.755339 0 0 0 0.04 0"/>
<feBlend mode="normal" in2="shape" result="effect1_innerShadow_1083_50505"/>
</filter>
<filter id="filter3_i_1083_50505" x="9.65872" y="15.1135" width="5.44857" height="7.0542" filterUnits="userSpaceOnUse" color-interpolation-filters="sRGB">
<feFlood flood-opacity="0" result="BackgroundImageFix"/>
<feBlend mode="normal" in="SourceGraphic" in2="BackgroundImageFix" result="shape"/>
<feColorMatrix in="SourceAlpha" type="matrix" values="0 0 0 0 0 0 0 0 0 0 0 0 0 0 0 0 0 0 127 0" result="hardAlpha"/>
<feOffset dx="0.25" dy="1"/>
<feComposite in2="hardAlpha" operator="arithmetic" k2="-1" k3="1"/>
<feColorMatrix type="matrix" values="0 0 0 0 0.234807 0 0 0 0 0.0519172 0 0 0 0 0.755339 0 0 0 0.04 0"/>
<feBlend mode="normal" in2="shape" result="effect1_innerShadow_1083_50505"/>
</filter>
<filter id="filter4_d_1083_50505" x="10.4877" y="16.5515" width="4.80423" height="5.05426" filterUnits="userSpaceOnUse" color-interpolation-filters="sRGB">
<feFlood flood-opacity="0" result="BackgroundImageFix"/>
<feColorMatrix in="SourceAlpha" type="matrix" values="0 0 0 0 0 0 0 0 0 0 0 0 0 0 0 0 0 0 127 0" result="hardAlpha"/>
<feOffset dx="0.25" dy="0.5"/>
<feColorMatrix type="matrix" values="0 0 0 0 0.234807 0 0 0 0 0.0519172 0 0 0 0 0.755339 0 0 0 0.04 0"/>
<feBlend mode="normal" in2="BackgroundImageFix" result="effect1_dropShadow_1083_50505"/>
<feBlend mode="normal" in="SourceGraphic" in2="effect1_dropShadow_1083_50505" result="shape"/>
</filter>
<filter id="filter5_d_1083_50505" x="19.7087" y="16.5493" width="4.80891" height="5.0589" filterUnits="userSpaceOnUse" color-interpolation-filters="sRGB">
<feFlood flood-opacity="0" result="BackgroundImageFix"/>
<feColorMatrix in="SourceAlpha" type="matrix" values="0 0 0 0 0 0 0 0 0 0 0 0 0 0 0 0 0 0 127 0" result="hardAlpha"/>
<feOffset dx="0.25" dy="0.5"/>
<feColorMatrix type="matrix" values="0 0 0 0 0.234807 0 0 0 0 0.0519172 0 0 0 0 0.755339 0 0 0 0.04 0"/>
<feBlend mode="normal" in2="BackgroundImageFix" result="effect1_dropShadow_1083_50505"/>
<feBlend mode="normal" in="SourceGraphic" in2="effect1_dropShadow_1083_50505" result="shape"/>
</filter>
</defs>
</svg>
